<mxfile host="app.diagrams.net" modified="2020-08-17T21:43:11.778Z" agent="5.0 (Windows NT 10.0; Win64; x64) AppleWebKit/537.36 (KHTML, like Gecko) Chrome/84.0.4147.125 Safari/537.36" etag="BXcuHj_1id2csSXn453O" version="13.6.2" type="github" pages="4">
  <diagram name="home" id="f1b7ffb7-ca1e-a977-7cf5-a751b3c06c05">
    <mxGraphModel dx="2527" dy="9802" grid="1" gridSize="10" guides="1" tooltips="1" connect="1" arrows="1" fold="1" page="1" pageScale="1" pageWidth="827" pageHeight="1169" background="#f5f5f5" math="0" shadow="0">
      <root>
        <mxCell id="0" />
        <mxCell id="1" parent="0" />
        <mxCell id="H7tklsqqmCMwV33GDocM-67" value="" style="strokeWidth=1;shadow=0;dashed=0;align=center;html=1;shape=mxgraph.mockup.containers.browserWindow;rSize=0;strokeColor2=#008cff;strokeColor3=#c4c4c4;mainText=,;recursiveResize=0;strokeColor=#FFFFFF;fillColor=#F5F5F5;" vertex="1" parent="1">
          <mxGeometry x="-1360" y="-9330" width="830" height="539" as="geometry" />
        </mxCell>
        <mxCell id="H7tklsqqmCMwV33GDocM-68" value="Page 1" style="strokeWidth=1;shadow=0;dashed=0;align=center;html=1;shape=mxgraph.mockup.containers.anchor;fontSize=17;fontColor=#666666;align=left;" vertex="1" parent="H7tklsqqmCMwV33GDocM-67">
          <mxGeometry x="60" y="12" width="110" height="26" as="geometry" />
        </mxCell>
        <mxCell id="H7tklsqqmCMwV33GDocM-69" value="https://www.draw.io" style="strokeWidth=1;shadow=0;dashed=0;align=center;html=1;shape=mxgraph.mockup.containers.anchor;rSize=0;fontSize=17;fontColor=#666666;align=left;" vertex="1" parent="H7tklsqqmCMwV33GDocM-67">
          <mxGeometry x="130" y="60" width="250" height="26" as="geometry" />
        </mxCell>
        <mxCell id="H7tklsqqmCMwV33GDocM-70" value="&lt;h1&gt;&lt;br&gt;&lt;/h1&gt;" style="rounded=0;whiteSpace=wrap;html=1;strokeColor=none;" vertex="1" parent="H7tklsqqmCMwV33GDocM-67">
          <mxGeometry y="108.18" width="830" height="71" as="geometry" />
        </mxCell>
        <mxCell id="H7tklsqqmCMwV33GDocM-71" value="&lt;div style=&quot;box-sizing: border-box ; color: rgb(255 , 255 , 255) ; font-family: &amp;#34;source sans pro&amp;#34; ; font-size: 16px ; background-color: rgb(7 , 82 , 165)&quot;&gt;Copyright Â©2020 American Chamber of Commerce in Egypt&lt;/div&gt;&lt;div class=&quot;small&quot; style=&quot;box-sizing: border-box ; font-size: 13.92px ; color: rgb(255 , 255 , 255) ; font-family: &amp;#34;source sans pro&amp;#34; ; background-color: rgb(7 , 82 , 165)&quot;&gt;&lt;a href=&quot;https://www.amcham.org.eg/privacy&quot; style=&quot;box-sizing: border-box ; background-color: transparent ; color: rgb(255 , 255 , 255)&quot;&gt;Privacy&lt;/a&gt;&amp;nbsp;&amp;nbsp;|&amp;nbsp;&amp;nbsp;&lt;a href=&quot;https://www.amcham.org.eg/copyright-disclaimer&quot; style=&quot;box-sizing: border-box ; background-color: transparent ; color: rgb(255 , 255 , 255)&quot;&gt;Copyright &amp;amp; Disclaimer&lt;/a&gt;&lt;/div&gt;" style="rounded=0;whiteSpace=wrap;html=1;fillColor=#0752a5;" vertex="1" parent="H7tklsqqmCMwV33GDocM-67">
          <mxGeometry y="479" width="830" height="60" as="geometry" />
        </mxCell>
        <mxCell id="H7tklsqqmCMwV33GDocM-74" value="&lt;b&gt;&lt;font style=&quot;font-size: 18px&quot;&gt;Durations&lt;/font&gt;&lt;/b&gt;" style="text;html=1;strokeColor=none;fillColor=none;align=center;verticalAlign=middle;whiteSpace=wrap;rounded=0;" vertex="1" parent="H7tklsqqmCMwV33GDocM-67">
          <mxGeometry x="363" y="190" width="100" height="20" as="geometry" />
        </mxCell>
        <mxCell id="H7tklsqqmCMwV33GDocM-75" value="&lt;a href=&quot;data:page/id,NS_Aw8GW7d97da-DBnMY&quot;&gt;&lt;font color=&quot;#000000&quot;&gt;2019-2020&lt;/font&gt;&lt;/a&gt;" style="rounded=0;whiteSpace=wrap;html=1;" vertex="1" parent="H7tklsqqmCMwV33GDocM-67">
          <mxGeometry x="55" y="230" width="120" height="60" as="geometry" />
        </mxCell>
        <mxCell id="H7tklsqqmCMwV33GDocM-76" value="2020-2021" style="rounded=0;whiteSpace=wrap;html=1;" vertex="1" parent="H7tklsqqmCMwV33GDocM-67">
          <mxGeometry x="353" y="230" width="120" height="60" as="geometry" />
        </mxCell>
        <mxCell id="H7tklsqqmCMwV33GDocM-77" value="2021-2022" style="rounded=0;whiteSpace=wrap;html=1;" vertex="1" parent="H7tklsqqmCMwV33GDocM-67">
          <mxGeometry x="630" y="230" width="120" height="60" as="geometry" />
        </mxCell>
        <mxCell id="H7tklsqqmCMwV33GDocM-80" value="2023-2024" style="rounded=0;whiteSpace=wrap;html=1;" vertex="1" parent="H7tklsqqmCMwV33GDocM-67">
          <mxGeometry x="353" y="320" width="120" height="60" as="geometry" />
        </mxCell>
        <mxCell id="H7tklsqqmCMwV33GDocM-79" value="2024-2025" style="rounded=0;whiteSpace=wrap;html=1;" vertex="1" parent="H7tklsqqmCMwV33GDocM-67">
          <mxGeometry x="630" y="320" width="120" height="60" as="geometry" />
        </mxCell>
        <mxCell id="H7tklsqqmCMwV33GDocM-78" value="2022-2023" style="rounded=0;whiteSpace=wrap;html=1;" vertex="1" parent="H7tklsqqmCMwV33GDocM-67">
          <mxGeometry x="55" y="320" width="120" height="60" as="geometry" />
        </mxCell>
        <mxCell id="H7tklsqqmCMwV33GDocM-83" value="2026-2027" style="rounded=0;whiteSpace=wrap;html=1;" vertex="1" parent="H7tklsqqmCMwV33GDocM-67">
          <mxGeometry x="353" y="400" width="120" height="60" as="geometry" />
        </mxCell>
        <mxCell id="H7tklsqqmCMwV33GDocM-82" value="2027-2028" style="rounded=0;whiteSpace=wrap;html=1;" vertex="1" parent="H7tklsqqmCMwV33GDocM-67">
          <mxGeometry x="630" y="400" width="120" height="60" as="geometry" />
        </mxCell>
        <mxCell id="H7tklsqqmCMwV33GDocM-81" value="2025-2026" style="rounded=0;whiteSpace=wrap;html=1;" vertex="1" parent="H7tklsqqmCMwV33GDocM-67">
          <mxGeometry x="55" y="400" width="120" height="60" as="geometry" />
        </mxCell>
        <mxCell id="H7tklsqqmCMwV33GDocM-89" value="&lt;a href=&quot;data:page/id,bnPBvNl-STVokxdTjAau&quot;&gt;&lt;font color=&quot;#ffffff&quot;&gt;Add New&lt;/font&gt;&lt;/a&gt;" style="strokeWidth=1;shadow=0;dashed=0;align=center;html=1;shape=mxgraph.mockup.buttons.button;fontColor=#ffffff;mainText=;buttonStyle=round;fontSize=17;fontStyle=1;whiteSpace=wrap;sketch=0;flipH=0;flipV=0;direction=east;fillColor=#d6373b;strokeColor=none;" vertex="1" parent="H7tklsqqmCMwV33GDocM-67">
          <mxGeometry x="627" y="190" width="123" height="26" as="geometry" />
        </mxCell>
        <mxCell id="Zd2UHVj01RCZWEI3yJGH-1" value="" style="shape=image;html=1;verticalAlign=top;verticalLabelPosition=bottom;labelBackgroundColor=#ffffff;imageAspect=0;aspect=fixed;image=https://www.amcham.org.eg/assets/images/logos/amcham_logo.png;shadow=0;sketch=0;strokeColor=#000000;fillColor=#f5f5f5;gradientColor=none;" vertex="1" parent="H7tklsqqmCMwV33GDocM-67">
          <mxGeometry x="55" y="111.5" width="180" height="64.36" as="geometry" />
        </mxCell>
        <mxCell id="6VdAchESk_Is9pFniemQ-1" value="&lt;h1 style=&quot;color: rgb(0 , 0 , 0) ; text-align: center&quot;&gt;&lt;font face=&quot;Verdana&quot; color=&quot;#0752a5&quot; style=&quot;font-size: 18px ; font-weight: normal&quot;&gt;Committee Leaders&lt;/font&gt;&lt;/h1&gt;" style="strokeWidth=1;shadow=0;dashed=0;align=center;html=1;shape=mxgraph.mockup.text.textBox;fontColor=#666666;align=left;fontSize=17;spacingLeft=4;spacingTop=-3;mainText=;sketch=0;gradientColor=none;fillColor=#FFFFFF;strokeColor=none;" vertex="1" parent="H7tklsqqmCMwV33GDocM-67">
          <mxGeometry x="560" y="111.50000000000058" width="190" height="70" as="geometry" />
        </mxCell>
      </root>
    </mxGraphModel>
  </diagram>
  <diagram id="bnPBvNl-STVokxdTjAau" name="add-duration">
    <mxGraphModel dx="2527" dy="7464" grid="1" gridSize="10" guides="1" tooltips="1" connect="1" arrows="1" fold="1" page="1" pageScale="1" pageWidth="827" pageHeight="1169" background="#f5f5f5" math="0" shadow="0">
      <root>
        <mxCell id="K-OwCfAC_GiCBh1X4TY2-0" />
        <mxCell id="K-OwCfAC_GiCBh1X4TY2-1" parent="K-OwCfAC_GiCBh1X4TY2-0" />
        <mxCell id="sm4rXIk96SK--p8jvRmV-0" value="&lt;span style=&quot;color: rgba(0 , 0 , 0 , 0) ; font-family: monospace ; font-size: 0px&quot;&gt;%3CmxGraphModel%3E%3Croot%3E%3CmxCell%20id%3D%220%22%2F%3E%3CmxCell%20id%3D%221%22%20parent%3D%220%22%2F%3E%3CmxCell%20id%3D%222%22%20value%3D%22%26lt%3Bdiv%20style%3D%26quot%3Bbox-sizing%3A%20border-box%20%3B%20color%3A%20rgb(255%20%2C%20255%20%2C%20255)%20%3B%20font-family%3A%20%26amp%3B%2334%3Bsource%20sans%20pro%26amp%3B%2334%3B%20%3B%20font-size%3A%2016px%20%3B%20background-color%3A%20rgb(7%20%2C%2082%20%2C%20165)%26quot%3B%26gt%3BCopyright%20%C2%A92020%20American%20Chamber%20of%20Commerce%20in%20Egypt%26lt%3B%2Fdiv%26gt%3B%26lt%3Bdiv%20class%3D%26quot%3Bsmall%26quot%3B%20style%3D%26quot%3Bbox-sizing%3A%20border-box%20%3B%20font-size%3A%2013.92px%20%3B%20color%3A%20rgb(255%20%2C%20255%20%2C%20255)%20%3B%20font-family%3A%20%26amp%3B%2334%3Bsource%20sans%20pro%26amp%3B%2334%3B%20%3B%20background-color%3A%20rgb(7%20%2C%2082%20%2C%20165)%26quot%3B%26gt%3B%26lt%3Ba%20href%3D%26quot%3Bhttps%3A%2F%2Fwww.amcham.org.eg%2Fprivacy%26quot%3B%20style%3D%26quot%3Bbox-sizing%3A%20border-box%20%3B%20background-color%3A%20transparent%20%3B%20color%3A%20rgb(255%20%2C%20255%20%2C%20255)%26quot%3B%26gt%3BPrivacy%26lt%3B%2Fa%26gt%3B%26amp%3Bnbsp%3B%26amp%3Bnbsp%3B%7C%26amp%3Bnbsp%3B%26amp%3Bnbsp%3B%26lt%3Ba%20href%3D%26quot%3Bhttps%3A%2F%2Fwww.amcham.org.eg%2Fcopyright-disclaimer%26quot%3B%20style%3D%26quot%3Bbox-sizing%3A%20border-box%20%3B%20background-color%3A%20transparent%20%3B%20color%3A%20rgb(255%20%2C%20255%20%2C%20255)%26quot%3B%26gt%3BCopyright%20%26amp%3Bamp%3B%20Disclaimer%26lt%3B%2Fa%26gt%3B%26lt%3B%2Fdiv%26gt%3B%22%20style%3D%22rounded%3D0%3BwhiteSpace%3Dwrap%3Bhtml%3D1%3BfillColor%3D%230752a5%3B%22%20vertex%3D%221%22%20parent%3D%221%22%3E%3CmxGeometry%20x%3D%22-1330%22%20y%3D%22-690%22%20width%3D%22830%22%20height%3D%2260%22%20as%3D%22geometry%22%2F%3E%3C%2FmxCell%3E%3C%2Froot%3E%3C%2FmxGraphModel%3E&lt;/span&gt;" style="strokeWidth=1;shadow=0;dashed=0;align=center;html=1;shape=mxgraph.mockup.containers.browserWindow;rSize=0;strokeColor2=#008cff;strokeColor3=#c4c4c4;mainText=,;recursiveResize=0;fillColor=#F5F5F5;strokeColor=none;" vertex="1" parent="K-OwCfAC_GiCBh1X4TY2-1">
          <mxGeometry x="-1630" y="-6990" width="830" height="550" as="geometry" />
        </mxCell>
        <mxCell id="sm4rXIk96SK--p8jvRmV-1" value="Page 1" style="strokeWidth=1;shadow=0;dashed=0;align=center;html=1;shape=mxgraph.mockup.containers.anchor;fontSize=17;fontColor=#666666;align=left;" vertex="1" parent="sm4rXIk96SK--p8jvRmV-0">
          <mxGeometry x="60" y="12" width="110" height="26" as="geometry" />
        </mxCell>
        <mxCell id="sm4rXIk96SK--p8jvRmV-2" value="https://www.draw.io" style="strokeWidth=1;shadow=0;dashed=0;align=center;html=1;shape=mxgraph.mockup.containers.anchor;rSize=0;fontSize=17;fontColor=#666666;align=left;" vertex="1" parent="sm4rXIk96SK--p8jvRmV-0">
          <mxGeometry x="130" y="60" width="250" height="26" as="geometry" />
        </mxCell>
        <mxCell id="W1R0vM8GxuK2huz2PfcY-0" value="&lt;div style=&quot;box-sizing: border-box ; color: rgb(255 , 255 , 255) ; font-family: &amp;quot;source sans pro&amp;quot; ; font-size: 16px ; background-color: rgb(7 , 82 , 165)&quot;&gt;Copyright Â©2020 American Chamber of Commerce in Egypt&lt;/div&gt;&lt;div class=&quot;small&quot; style=&quot;box-sizing: border-box ; font-size: 13.92px ; color: rgb(255 , 255 , 255) ; font-family: &amp;quot;source sans pro&amp;quot; ; background-color: rgb(7 , 82 , 165)&quot;&gt;&lt;a href=&quot;https://www.amcham.org.eg/privacy&quot; style=&quot;box-sizing: border-box ; background-color: transparent ; color: rgb(255 , 255 , 255)&quot;&gt;Privacy&lt;/a&gt;&amp;nbsp;&amp;nbsp;|&amp;nbsp;&amp;nbsp;&lt;a href=&quot;https://www.amcham.org.eg/copyright-disclaimer&quot; style=&quot;box-sizing: border-box ; background-color: transparent ; color: rgb(255 , 255 , 255)&quot;&gt;Copyright &amp;amp; Disclaimer&lt;/a&gt;&lt;/div&gt;" style="rounded=0;whiteSpace=wrap;html=1;fillColor=#0752a5;" vertex="1" parent="sm4rXIk96SK--p8jvRmV-0">
          <mxGeometry y="490" width="830" height="60" as="geometry" />
        </mxCell>
        <mxCell id="E11xSg3CMFqlAESdMAW0-0" value="&lt;h1&gt;&lt;br&gt;&lt;/h1&gt;" style="rounded=0;whiteSpace=wrap;html=1;align=center;strokeColor=none;" vertex="1" parent="sm4rXIk96SK--p8jvRmV-0">
          <mxGeometry y="109" width="830" height="71" as="geometry" />
        </mxCell>
        <mxCell id="E11xSg3CMFqlAESdMAW0-1" value="" style="shape=image;html=1;verticalAlign=top;verticalLabelPosition=bottom;labelBackgroundColor=#ffffff;imageAspect=0;aspect=fixed;image=https://www.amcham.org.eg/assets/images/logos/amcham_logo.png;shadow=0;sketch=0;strokeColor=#000000;fillColor=#f5f5f5;gradientColor=none;" vertex="1" parent="sm4rXIk96SK--p8jvRmV-0">
          <mxGeometry x="55" y="110.53999999999971" width="190" height="67.93" as="geometry" />
        </mxCell>
        <mxCell id="eZMivHNMwsldQVukVKvh-0" value="" style="strokeWidth=1;shadow=0;dashed=0;align=center;html=1;shape=mxgraph.mockup.forms.rrect;rSize=0;fillColor=#ffffff;sketch=0;strokeColor=none;" vertex="1" parent="sm4rXIk96SK--p8jvRmV-0">
          <mxGeometry x="55" y="240" width="720" height="250" as="geometry" />
        </mxCell>
        <mxCell id="eZMivHNMwsldQVukVKvh-1" value="&lt;b&gt;&lt;font style=&quot;font-size: 14px&quot;&gt;New Duration&lt;/font&gt;&lt;/b&gt;" style="strokeWidth=1;shadow=0;dashed=0;align=center;html=1;shape=mxgraph.mockup.forms.anchor;fontSize=12;fontColor=#666666;align=left;resizeWidth=1;spacingLeft=0;" vertex="1" parent="eZMivHNMwsldQVukVKvh-0">
          <mxGeometry width="359.99999999999994" height="20" relative="1" as="geometry">
            <mxPoint x="10" y="10" as="offset" />
          </mxGeometry>
        </mxCell>
        <mxCell id="eZMivHNMwsldQVukVKvh-2" value="" style="shape=line;strokeColor=#ddeeff;strokeWidth=2;html=1;resizeWidth=1;" vertex="1" parent="eZMivHNMwsldQVukVKvh-0">
          <mxGeometry width="647.9999999999999" height="10" relative="1" as="geometry">
            <mxPoint x="10" y="30" as="offset" />
          </mxGeometry>
        </mxCell>
        <mxCell id="eZMivHNMwsldQVukVKvh-3" value="Duration Name:" style="strokeWidth=1;shadow=0;dashed=0;align=center;html=1;shape=mxgraph.mockup.forms.anchor;fontSize=12;fontColor=#666666;align=left;resizeWidth=1;spacingLeft=0;" vertex="1" parent="eZMivHNMwsldQVukVKvh-0">
          <mxGeometry width="359.99999999999994" height="20" relative="1" as="geometry">
            <mxPoint x="10" y="50" as="offset" />
          </mxGeometry>
        </mxCell>
        <mxCell id="eZMivHNMwsldQVukVKvh-4" value="2020-2021" style="strokeWidth=1;shadow=0;dashed=0;align=center;html=1;shape=mxgraph.mockup.forms.rrect;rSize=0;strokeColor=#999999;fontColor=#666666;align=left;spacingLeft=5;resizeWidth=1;" vertex="1" parent="eZMivHNMwsldQVukVKvh-0">
          <mxGeometry width="540" height="25" relative="1" as="geometry">
            <mxPoint x="10" y="90" as="offset" />
          </mxGeometry>
        </mxCell>
        <mxCell id="eZMivHNMwsldQVukVKvh-7" value="Add" style="strokeWidth=1;shadow=0;dashed=0;align=center;html=1;shape=mxgraph.mockup.forms.rrect;rSize=5;strokeColor=none;fontColor=#ffffff;fontSize=16;fontStyle=1;fillColor=#D6373B;" vertex="1" parent="eZMivHNMwsldQVukVKvh-0">
          <mxGeometry y="1" width="80" height="30" relative="1" as="geometry">
            <mxPoint x="10" y="-90" as="offset" />
          </mxGeometry>
        </mxCell>
        <mxCell id="PCs3qDYyVr63X5A_DwIJ-0" value="&lt;font color=&quot;#d6373b&quot; style=&quot;font-weight: normal&quot;&gt;Durations&lt;/font&gt;" style="strokeWidth=1;shadow=0;dashed=0;align=center;html=1;shape=mxgraph.mockup.navigation.anchor;fontSize=17;fontColor=#666666;fontStyle=1;sketch=0;fillColor=#f5f5f5;gradientColor=none;" vertex="1" parent="sm4rXIk96SK--p8jvRmV-0">
          <mxGeometry x="60" y="200" width="60" height="30" as="geometry" />
        </mxCell>
        <mxCell id="PCs3qDYyVr63X5A_DwIJ-1" value="&gt;" style="strokeWidth=1;shadow=0;dashed=0;align=center;html=1;shape=mxgraph.mockup.navigation.anchor;fontSize=24;fontColor=#aaaaaa;fontStyle=1;sketch=0;fillColor=#f5f5f5;gradientColor=none;" vertex="1" parent="sm4rXIk96SK--p8jvRmV-0">
          <mxGeometry x="130" y="200" width="20" height="30" as="geometry" />
        </mxCell>
        <mxCell id="PCs3qDYyVr63X5A_DwIJ-2" value="&lt;font color=&quot;#000000&quot; style=&quot;font-weight: normal&quot;&gt;add New&lt;/font&gt;" style="strokeWidth=1;shadow=0;dashed=0;align=center;html=1;shape=mxgraph.mockup.navigation.anchor;fontSize=17;fontColor=#008cff;fontStyle=1;sketch=0;fillColor=#f5f5f5;gradientColor=none;" vertex="1" parent="sm4rXIk96SK--p8jvRmV-0">
          <mxGeometry x="160" y="200" width="60" height="30" as="geometry" />
        </mxCell>
        <mxCell id="qu1Kzv9yrvxG9cIUTuHZ-0" value="&lt;h1 style=&quot;color: rgb(0 , 0 , 0) ; text-align: center&quot;&gt;&lt;font face=&quot;Verdana&quot; color=&quot;#0752a5&quot; style=&quot;font-size: 18px ; font-weight: normal&quot;&gt;Committee Leaders&lt;/font&gt;&lt;/h1&gt;" style="strokeWidth=1;shadow=0;dashed=0;align=center;html=1;shape=mxgraph.mockup.text.textBox;fontColor=#666666;align=left;fontSize=17;spacingLeft=4;spacingTop=-3;mainText=;sketch=0;gradientColor=none;fillColor=#FFFFFF;strokeColor=none;" vertex="1" parent="sm4rXIk96SK--p8jvRmV-0">
          <mxGeometry x="585" y="110.53999999999996" width="190" height="70" as="geometry" />
        </mxCell>
      </root>
    </mxGraphModel>
  </diagram>
  <diagram id="NS_Aw8GW7d97da-DBnMY" name="committees">
    <mxGraphModel dx="2527" dy="7464" grid="1" gridSize="10" guides="1" tooltips="1" connect="1" arrows="1" fold="1" page="1" pageScale="1" pageWidth="827" pageHeight="1169" math="0" shadow="0">
      <root>
        <mxCell id="v-uxOFkfxWbe56XjeFyL-0" />
        <mxCell id="v-uxOFkfxWbe56XjeFyL-1" parent="v-uxOFkfxWbe56XjeFyL-0" />
        <mxCell id="84SPTgFpFJXcpy9eZNCD-0" value="" style="strokeWidth=1;shadow=0;dashed=0;align=center;html=1;shape=mxgraph.mockup.containers.browserWindow;rSize=0;strokeColor2=#008cff;strokeColor3=#c4c4c4;mainText=,;recursiveResize=0;strokeColor=#FFFFFF;fillColor=#f5f5f5;" vertex="1" parent="v-uxOFkfxWbe56XjeFyL-1">
          <mxGeometry x="-1580" y="-7000" width="830" height="760" as="geometry" />
        </mxCell>
        <mxCell id="84SPTgFpFJXcpy9eZNCD-1" value="Page 1" style="strokeWidth=1;shadow=0;dashed=0;align=center;html=1;shape=mxgraph.mockup.containers.anchor;fontSize=17;fontColor=#666666;align=left;" vertex="1" parent="84SPTgFpFJXcpy9eZNCD-0">
          <mxGeometry x="60" y="12" width="110" height="26" as="geometry" />
        </mxCell>
        <mxCell id="84SPTgFpFJXcpy9eZNCD-2" value="https://www.draw.io" style="strokeWidth=1;shadow=0;dashed=0;align=center;html=1;shape=mxgraph.mockup.containers.anchor;rSize=0;fontSize=17;fontColor=#666666;align=left;" vertex="1" parent="84SPTgFpFJXcpy9eZNCD-0">
          <mxGeometry x="130" y="60" width="250" height="26" as="geometry" />
        </mxCell>
        <mxCell id="84SPTgFpFJXcpy9eZNCD-4" value="&lt;div style=&quot;box-sizing: border-box ; color: rgb(255 , 255 , 255) ; font-family: &amp;quot;source sans pro&amp;quot; ; font-size: 16px ; background-color: rgb(7 , 82 , 165)&quot;&gt;Copyright Â©2020 American Chamber of Commerce in Egypt&lt;/div&gt;&lt;div class=&quot;small&quot; style=&quot;box-sizing: border-box ; font-size: 13.92px ; color: rgb(255 , 255 , 255) ; font-family: &amp;quot;source sans pro&amp;quot; ; background-color: rgb(7 , 82 , 165)&quot;&gt;&lt;a href=&quot;https://www.amcham.org.eg/privacy&quot; style=&quot;box-sizing: border-box ; background-color: transparent ; color: rgb(255 , 255 , 255)&quot;&gt;Privacy&lt;/a&gt;&amp;nbsp;&amp;nbsp;|&amp;nbsp;&amp;nbsp;&lt;a href=&quot;https://www.amcham.org.eg/copyright-disclaimer&quot; style=&quot;box-sizing: border-box ; background-color: transparent ; color: rgb(255 , 255 , 255)&quot;&gt;Copyright &amp;amp; Disclaimer&lt;/a&gt;&lt;/div&gt;" style="rounded=0;whiteSpace=wrap;html=1;fillColor=#0752a5;" vertex="1" parent="84SPTgFpFJXcpy9eZNCD-0">
          <mxGeometry y="700" width="830" height="61" as="geometry" />
        </mxCell>
        <mxCell id="84SPTgFpFJXcpy9eZNCD-6" value="&lt;span style=&quot;color: rgb(34 , 34 , 34) ; text-align: left ; background-color: rgb(255 , 255 , 255)&quot;&gt;&lt;font face=&quot;Verdana&quot; style=&quot;font-size: 14px&quot;&gt;Agriculture and Food Security&lt;/font&gt;&lt;/span&gt;" style="rounded=0;whiteSpace=wrap;html=1;fillColor=#FFFFFF;strokeColor=#E0E0E0;" vertex="1" parent="84SPTgFpFJXcpy9eZNCD-0">
          <mxGeometry x="55" y="410" width="120" height="60" as="geometry" />
        </mxCell>
        <mxCell id="84SPTgFpFJXcpy9eZNCD-7" value="&lt;span style=&quot;text-align: left ; background-color: rgb(245 , 245 , 245)&quot;&gt;&lt;font face=&quot;Verdana&quot; style=&quot;font-size: 14px&quot;&gt;&lt;a href=&quot;data:page/id,xkJtxGEg9Hib5oOGqanG&quot;&gt;Banking&lt;/a&gt;&lt;/font&gt;&lt;/span&gt;" style="rounded=0;whiteSpace=wrap;html=1;strokeColor=#E0E0E0;" vertex="1" parent="84SPTgFpFJXcpy9eZNCD-0">
          <mxGeometry x="250" y="410" width="120" height="60" as="geometry" />
        </mxCell>
        <mxCell id="84SPTgFpFJXcpy9eZNCD-8" value="&lt;span style=&quot;color: rgb(34 , 34 , 34) ; text-align: left ; background-color: rgb(255 , 255 , 255)&quot;&gt;&lt;font face=&quot;Verdana&quot; style=&quot;font-size: 12px&quot;&gt;Corporate Impact &amp;amp; Sustainability (CIS)&lt;/font&gt;&lt;/span&gt;" style="rounded=0;whiteSpace=wrap;html=1;strokeColor=#E0E0E0;" vertex="1" parent="84SPTgFpFJXcpy9eZNCD-0">
          <mxGeometry x="470" y="410" width="120" height="60" as="geometry" />
        </mxCell>
        <mxCell id="84SPTgFpFJXcpy9eZNCD-9" value="&lt;span style=&quot;color: rgb(34 , 34 , 34) ; text-align: left ; background-color: rgb(255 , 255 , 255)&quot;&gt;&lt;font style=&quot;font-size: 14px&quot;&gt;Education for Competitiveness&lt;/font&gt;&lt;/span&gt;" style="rounded=0;whiteSpace=wrap;html=1;strokeColor=#E0E0E0;" vertex="1" parent="84SPTgFpFJXcpy9eZNCD-0">
          <mxGeometry x="250" y="510" width="120" height="60" as="geometry" />
        </mxCell>
        <mxCell id="84SPTgFpFJXcpy9eZNCD-10" value="&lt;span style=&quot;color: rgb(34 , 34 , 34) ; text-align: left ; background-color: rgb(255 , 255 , 255)&quot;&gt;&lt;font face=&quot;Verdana&quot; style=&quot;font-size: 14px&quot;&gt;Customs &amp;amp; Taxation&lt;/font&gt;&lt;/span&gt;" style="rounded=0;whiteSpace=wrap;html=1;strokeColor=#E0E0E0;" vertex="1" parent="84SPTgFpFJXcpy9eZNCD-0">
          <mxGeometry x="653" y="410" width="120" height="60" as="geometry" />
        </mxCell>
        <mxCell id="84SPTgFpFJXcpy9eZNCD-11" value="&lt;span style=&quot;color: rgb(34 , 34 , 34) ; text-align: left ; background-color: rgb(255 , 255 , 255)&quot;&gt;&lt;font face=&quot;Verdana&quot; style=&quot;font-size: 14px&quot;&gt;Digital Transformation&lt;/font&gt;&lt;/span&gt;" style="rounded=0;whiteSpace=wrap;html=1;strokeColor=#E0E0E0;" vertex="1" parent="84SPTgFpFJXcpy9eZNCD-0">
          <mxGeometry x="55" y="510" width="120" height="60" as="geometry" />
        </mxCell>
        <mxCell id="84SPTgFpFJXcpy9eZNCD-12" value="&lt;span style=&quot;color: rgb(34 , 34 , 34) ; text-align: left ; background-color: rgb(255 , 255 , 255)&quot;&gt;&lt;font face=&quot;Verdana&quot; style=&quot;font-size: 12px&quot;&gt;Entrepreneurship &amp;amp; Innovation (EIC)&lt;/font&gt;&lt;/span&gt;" style="rounded=0;whiteSpace=wrap;html=1;strokeColor=#E0E0E0;" vertex="1" parent="84SPTgFpFJXcpy9eZNCD-0">
          <mxGeometry x="470" y="510" width="120" height="60" as="geometry" />
        </mxCell>
        <mxCell id="84SPTgFpFJXcpy9eZNCD-13" value="&lt;span style=&quot;color: rgb(34 , 34 , 34) ; text-align: left ; background-color: rgb(255 , 255 , 255)&quot;&gt;&lt;font style=&quot;font-size: 14px&quot; face=&quot;Verdana&quot;&gt;Healthcare&lt;/font&gt;&lt;/span&gt;" style="rounded=0;whiteSpace=wrap;html=1;strokeColor=#E0E0E0;" vertex="1" parent="84SPTgFpFJXcpy9eZNCD-0">
          <mxGeometry x="653" y="510" width="120" height="60" as="geometry" />
        </mxCell>
        <mxCell id="84SPTgFpFJXcpy9eZNCD-14" value="&lt;span style=&quot;color: rgb(34 , 34 , 34) ; text-align: left ; background-color: rgb(255 , 255 , 255)&quot;&gt;&lt;font face=&quot;Verdana&quot; style=&quot;font-size: 14px&quot;&gt;HR (Talent Management)&lt;/font&gt;&lt;/span&gt;" style="rounded=0;whiteSpace=wrap;html=1;strokeColor=#E0E0E0;" vertex="1" parent="84SPTgFpFJXcpy9eZNCD-0">
          <mxGeometry x="50" y="610" width="120" height="60" as="geometry" />
        </mxCell>
        <mxCell id="84SPTgFpFJXcpy9eZNCD-18" value="&lt;span style=&quot;color: rgb(34 , 34 , 34) ; text-align: left ; background-color: rgb(255 , 255 , 255)&quot;&gt;&lt;font style=&quot;font-size: 14px&quot; face=&quot;Verdana&quot;&gt;Industry &amp;amp; Trade&lt;/font&gt;&lt;/span&gt;" style="rounded=0;whiteSpace=wrap;html=1;strokeColor=#E0E0E0;" vertex="1" parent="84SPTgFpFJXcpy9eZNCD-0">
          <mxGeometry x="250" y="610" width="120" height="60" as="geometry" />
        </mxCell>
        <mxCell id="84SPTgFpFJXcpy9eZNCD-17" value="&lt;span style=&quot;color: rgb(34 , 34 , 34) ; text-align: left ; background-color: rgb(255 , 255 , 255)&quot;&gt;&lt;font style=&quot;font-size: 14px&quot; face=&quot;Verdana&quot;&gt;Insurance&lt;/font&gt;&lt;/span&gt;" style="rounded=0;whiteSpace=wrap;html=1;strokeColor=#E0E0E0;" vertex="1" parent="84SPTgFpFJXcpy9eZNCD-0">
          <mxGeometry x="470" y="610" width="120" height="60" as="geometry" />
        </mxCell>
        <mxCell id="84SPTgFpFJXcpy9eZNCD-16" value="&lt;span style=&quot;color: rgb(34 , 34 , 34) ; text-align: left ; background-color: rgb(255 , 255 , 255)&quot;&gt;&lt;font face=&quot;Verdana&quot; style=&quot;font-size: 14px&quot;&gt;International Cooperation&lt;/font&gt;&lt;/span&gt;" style="rounded=0;whiteSpace=wrap;html=1;strokeColor=#E0E0E0;" vertex="1" parent="84SPTgFpFJXcpy9eZNCD-0">
          <mxGeometry x="653" y="610" width="120" height="60" as="geometry" />
        </mxCell>
        <mxCell id="txqd220imeyvNi9Px5Ri-0" value="&lt;font color=&quot;#d6373b&quot; style=&quot;font-weight: normal&quot;&gt;Durations&lt;/font&gt;" style="strokeWidth=1;shadow=0;dashed=0;align=center;html=1;shape=mxgraph.mockup.navigation.anchor;fontSize=17;fontColor=#666666;fontStyle=1;sketch=0;fillColor=#f5f5f5;gradientColor=none;" vertex="1" parent="84SPTgFpFJXcpy9eZNCD-0">
          <mxGeometry x="60" y="190" width="60" height="30" as="geometry" />
        </mxCell>
        <mxCell id="txqd220imeyvNi9Px5Ri-1" value="&gt;" style="strokeWidth=1;shadow=0;dashed=0;align=center;html=1;shape=mxgraph.mockup.navigation.anchor;fontSize=24;fontColor=#aaaaaa;fontStyle=1;sketch=0;fillColor=#f5f5f5;gradientColor=none;" vertex="1" parent="84SPTgFpFJXcpy9eZNCD-0">
          <mxGeometry x="130" y="190" width="20" height="30" as="geometry" />
        </mxCell>
        <mxCell id="txqd220imeyvNi9Px5Ri-6" value="&lt;font color=&quot;#000000&quot; style=&quot;font-weight: normal&quot;&gt;2019-2020&lt;/font&gt;" style="strokeWidth=1;shadow=0;dashed=0;align=center;html=1;shape=mxgraph.mockup.navigation.anchor;fontSize=17;fontColor=#008cff;fontStyle=1;sketch=0;fillColor=#f5f5f5;gradientColor=none;" vertex="1" parent="84SPTgFpFJXcpy9eZNCD-0">
          <mxGeometry x="170" y="190" width="60" height="30" as="geometry" />
        </mxCell>
        <mxCell id="T_0CRrTqKcFtAej6jgqv-0" value="&lt;h1&gt;&lt;br&gt;&lt;/h1&gt;" style="rounded=0;whiteSpace=wrap;html=1;strokeColor=none;" vertex="1" parent="84SPTgFpFJXcpy9eZNCD-0">
          <mxGeometry y="110" width="830" height="71" as="geometry" />
        </mxCell>
        <mxCell id="T_0CRrTqKcFtAej6jgqv-1" value="" style="shape=image;html=1;verticalAlign=top;verticalLabelPosition=bottom;labelBackgroundColor=#ffffff;imageAspect=0;aspect=fixed;image=https://www.amcham.org.eg/assets/images/logos/amcham_logo.png;shadow=0;sketch=0;strokeColor=#000000;fillColor=#f5f5f5;gradientColor=none;" vertex="1" parent="84SPTgFpFJXcpy9eZNCD-0">
          <mxGeometry x="55" y="116.5" width="180.4" height="64.5" as="geometry" />
        </mxCell>
        <mxCell id="T_0CRrTqKcFtAej6jgqv-2" value="&lt;font face=&quot;Verdana&quot;&gt;&lt;font style=&quot;font-size: 18px&quot;&gt;&amp;nbsp; &amp;nbsp;&lt;br&gt;&amp;nbsp; &amp;nbsp;AmCham Committees&lt;/font&gt; &lt;br&gt;&lt;br&gt;&lt;br&gt;&lt;br&gt;&amp;nbsp; &amp;nbsp;&lt;/font&gt;" style="text;spacingTop=-5;whiteSpace=wrap;html=1;align=left;fontSize=12;fontFamily=Helvetica;strokeColor=none;shadow=0;sketch=0;fillColor=#ffffff;" vertex="1" parent="84SPTgFpFJXcpy9eZNCD-0">
          <mxGeometry x="55" y="230" width="720" height="160" as="geometry" />
        </mxCell>
        <mxCell id="T_0CRrTqKcFtAej6jgqv-3" value="" style="verticalLabelPosition=bottom;shadow=0;dashed=0;align=center;html=1;verticalAlign=top;strokeWidth=1;shape=mxgraph.mockup.markup.line;strokeColor=#999999;sketch=0;fillColor=#f5f5f5;gradientColor=none;" vertex="1" parent="84SPTgFpFJXcpy9eZNCD-0">
          <mxGeometry x="60" y="280" width="690" height="20" as="geometry" />
        </mxCell>
        <mxCell id="T_0CRrTqKcFtAej6jgqv-4" value="&lt;font style=&quot;font-size: 12px&quot;&gt;&lt;span style=&quot;color: rgb(0 , 0 , 0) ; font-family: &amp;#34;verdana&amp;#34;&quot;&gt;AmCham Committees spearhead advocacy efforts for a favorable business environment in Egypt, and provide a&amp;nbsp; &amp;nbsp; &amp;nbsp; &amp;nbsp;&lt;/span&gt;&lt;br style=&quot;color: rgb(0 , 0 , 0) ; font-family: &amp;#34;verdana&amp;#34;&quot;&gt;&lt;span style=&quot;color: rgb(0 , 0 , 0) ; font-family: &amp;#34;verdana&amp;#34;&quot;&gt;&amp;nbsp; &amp;nbsp;forum for members to identify, discuss, and pursue common interests regarding their sector and businesses&lt;/span&gt;&lt;/font&gt;" style="strokeWidth=1;shadow=0;dashed=0;align=left;html=1;shape=mxgraph.mockup.text.textBox;fontColor=#666666;align=left;fontSize=17;spacingLeft=4;spacingTop=-3;mainText=;sketch=0;fillColor=#ffffff;gradientColor=none;strokeColor=none;" vertex="1" parent="84SPTgFpFJXcpy9eZNCD-0">
          <mxGeometry x="60" y="320" width="680" height="50" as="geometry" />
        </mxCell>
        <mxCell id="JQPA2ixL_RbzaS4sq_Zu-0" value="&lt;h1 style=&quot;color: rgb(0 , 0 , 0) ; text-align: center&quot;&gt;&lt;font face=&quot;Verdana&quot; color=&quot;#0752a5&quot; style=&quot;font-size: 18px ; font-weight: normal&quot;&gt;Committee Leaders&lt;/font&gt;&lt;/h1&gt;" style="strokeWidth=1;shadow=0;dashed=0;align=center;html=1;shape=mxgraph.mockup.text.textBox;fontColor=#666666;align=left;fontSize=17;spacingLeft=4;spacingTop=-3;mainText=;sketch=0;gradientColor=none;fillColor=#FFFFFF;strokeColor=none;" vertex="1" parent="84SPTgFpFJXcpy9eZNCD-0">
          <mxGeometry x="583" y="110" width="190" height="70" as="geometry" />
        </mxCell>
      </root>
    </mxGraphModel>
  </diagram>
  <diagram name="banking committee" id="xkJtxGEg9Hib5oOGqanG">
    <mxGraphModel dx="2527" dy="8633" grid="1" gridSize="10" guides="1" tooltips="1" connect="1" arrows="1" fold="1" page="1" pageScale="1" pageWidth="827" pageHeight="1169" math="0" shadow="0">
      <root>
        <mxCell id="052PNmQrLWlGElGI5fra-0" />
        <mxCell id="052PNmQrLWlGElGI5fra-1" parent="052PNmQrLWlGElGI5fra-0" />
        <mxCell id="052PNmQrLWlGElGI5fra-2" value="" style="strokeWidth=1;shadow=0;dashed=0;align=center;html=1;shape=mxgraph.mockup.containers.browserWindow;rSize=0;strokeColor2=#008cff;strokeColor3=#c4c4c4;mainText=,;recursiveResize=0;strokeColor=#FFFFFF;fillColor=#F5F5F5;" vertex="1" parent="052PNmQrLWlGElGI5fra-1">
          <mxGeometry x="-1590" y="-8160" width="830" height="1000" as="geometry" />
        </mxCell>
        <mxCell id="052PNmQrLWlGElGI5fra-3" value="Page 1" style="strokeWidth=1;shadow=0;dashed=0;align=center;html=1;shape=mxgraph.mockup.containers.anchor;fontSize=17;fontColor=#666666;align=left;" vertex="1" parent="052PNmQrLWlGElGI5fra-2">
          <mxGeometry x="60" y="12" width="110" height="26" as="geometry" />
        </mxCell>
        <mxCell id="052PNmQrLWlGElGI5fra-4" value="https://www.draw.io" style="strokeWidth=1;shadow=0;dashed=0;align=center;html=1;shape=mxgraph.mockup.containers.anchor;rSize=0;fontSize=17;fontColor=#666666;align=left;" vertex="1" parent="052PNmQrLWlGElGI5fra-2">
          <mxGeometry x="130" y="60" width="250" height="26" as="geometry" />
        </mxCell>
        <mxCell id="052PNmQrLWlGElGI5fra-18" value="&lt;font color=&quot;#d6373b&quot; style=&quot;font-weight: normal&quot;&gt;2019-2020&lt;/font&gt;" style="strokeWidth=1;shadow=0;dashed=0;align=center;html=1;shape=mxgraph.mockup.navigation.anchor;fontSize=17;fontColor=#666666;fontStyle=1;sketch=0;fillColor=#f5f5f5;gradientColor=none;" vertex="1" parent="052PNmQrLWlGElGI5fra-2">
          <mxGeometry x="60" y="190" width="60" height="30" as="geometry" />
        </mxCell>
        <mxCell id="052PNmQrLWlGElGI5fra-19" value="&gt;" style="strokeWidth=1;shadow=0;dashed=0;align=center;html=1;shape=mxgraph.mockup.navigation.anchor;fontSize=24;fontColor=#aaaaaa;fontStyle=1;sketch=0;fillColor=#f5f5f5;gradientColor=none;" vertex="1" parent="052PNmQrLWlGElGI5fra-2">
          <mxGeometry x="260" y="190" width="20" height="30" as="geometry" />
        </mxCell>
        <mxCell id="052PNmQrLWlGElGI5fra-20" value="&lt;font color=&quot;#000000&quot; style=&quot;font-weight: normal&quot;&gt;Banking Committee&lt;/font&gt;" style="strokeWidth=1;shadow=0;dashed=0;align=center;html=1;shape=mxgraph.mockup.navigation.anchor;fontSize=17;fontColor=#008cff;fontStyle=1;sketch=0;fillColor=#f5f5f5;gradientColor=none;" vertex="1" parent="052PNmQrLWlGElGI5fra-2">
          <mxGeometry x="330" y="190" width="60" height="30" as="geometry" />
        </mxCell>
        <mxCell id="052PNmQrLWlGElGI5fra-21" value="&lt;h1&gt;&lt;br&gt;&lt;/h1&gt;" style="rounded=0;whiteSpace=wrap;html=1;strokeColor=none;" vertex="1" parent="052PNmQrLWlGElGI5fra-2">
          <mxGeometry y="110" width="830" height="71" as="geometry" />
        </mxCell>
        <mxCell id="052PNmQrLWlGElGI5fra-22" value="" style="shape=image;html=1;verticalAlign=top;verticalLabelPosition=bottom;labelBackgroundColor=#ffffff;imageAspect=0;aspect=fixed;image=https://www.amcham.org.eg/assets/images/logos/amcham_logo.png;shadow=0;sketch=0;strokeColor=#000000;fillColor=#f5f5f5;gradientColor=none;" vertex="1" parent="052PNmQrLWlGElGI5fra-2">
          <mxGeometry x="55" y="116.5" width="180.4" height="64.5" as="geometry" />
        </mxCell>
        <mxCell id="052PNmQrLWlGElGI5fra-23" value="&lt;font face=&quot;Verdana&quot;&gt;&lt;font style=&quot;font-size: 18px&quot;&gt;&amp;nbsp; &amp;nbsp;&lt;br&gt;&amp;nbsp; &amp;nbsp;Committee Info&lt;/font&gt;&lt;br&gt;&lt;br&gt;&lt;br&gt;&lt;br&gt;&amp;nbsp; &amp;nbsp;&lt;/font&gt;" style="text;spacingTop=-5;whiteSpace=wrap;html=1;align=left;fontSize=12;fontFamily=Helvetica;strokeColor=none;shadow=0;sketch=0;fillColor=#ffffff;" vertex="1" parent="052PNmQrLWlGElGI5fra-2">
          <mxGeometry x="55" y="230" width="720" height="160" as="geometry" />
        </mxCell>
        <mxCell id="052PNmQrLWlGElGI5fra-24" value="" style="verticalLabelPosition=bottom;shadow=0;dashed=0;align=center;html=1;verticalAlign=top;strokeWidth=1;shape=mxgraph.mockup.markup.line;strokeColor=#999999;sketch=0;fillColor=#f5f5f5;gradientColor=none;" vertex="1" parent="052PNmQrLWlGElGI5fra-2">
          <mxGeometry x="60" y="280" width="690" height="20" as="geometry" />
        </mxCell>
        <mxCell id="052PNmQrLWlGElGI5fra-25" value="&lt;font style=&quot;font-size: 12px&quot;&gt;&lt;span style=&quot;color: rgb(0 , 0 , 0) ; font-family: &amp;#34;verdana&amp;#34;&quot;&gt;AmCham Committees spearhead advocacy efforts for a favorable business environment in Egypt, and provide a&amp;nbsp; &amp;nbsp; &amp;nbsp; &amp;nbsp;&lt;/span&gt;&lt;br style=&quot;color: rgb(0 , 0 , 0) ; font-family: &amp;#34;verdana&amp;#34;&quot;&gt;&lt;span style=&quot;color: rgb(0 , 0 , 0) ; font-family: &amp;#34;verdana&amp;#34;&quot;&gt;&amp;nbsp; &amp;nbsp;forum for members to identify, discuss, and pursue common interests regarding their sector and businesses&lt;/span&gt;&lt;/font&gt;" style="strokeWidth=1;shadow=0;dashed=0;align=left;html=1;shape=mxgraph.mockup.text.textBox;fontColor=#666666;align=left;fontSize=17;spacingLeft=4;spacingTop=-3;mainText=;sketch=0;fillColor=#ffffff;gradientColor=none;strokeColor=none;" vertex="1" parent="052PNmQrLWlGElGI5fra-2">
          <mxGeometry x="60" y="320" width="680" height="50" as="geometry" />
        </mxCell>
        <mxCell id="052PNmQrLWlGElGI5fra-26" value="&lt;h1 style=&quot;color: rgb(0 , 0 , 0) ; text-align: center&quot;&gt;&lt;font face=&quot;Verdana&quot; color=&quot;#0752a5&quot; style=&quot;font-size: 18px ; font-weight: normal&quot;&gt;Committee Leaders&lt;/font&gt;&lt;/h1&gt;" style="strokeWidth=1;shadow=0;dashed=0;align=center;html=1;shape=mxgraph.mockup.text.textBox;fontColor=#666666;align=left;fontSize=17;spacingLeft=4;spacingTop=-3;mainText=;sketch=0;gradientColor=none;fillColor=#FFFFFF;strokeColor=none;" vertex="1" parent="052PNmQrLWlGElGI5fra-2">
          <mxGeometry x="583" y="110" width="190" height="70" as="geometry" />
        </mxCell>
        <mxCell id="aEFtM2zXmzP00y7Bp3y5-0" value="&lt;h2 class=&quot;text-secondary ng-binding&quot; style=&quot;text-align: center ; box-sizing: border-box ; font-family: &amp;#34;source sans pro&amp;#34; ; font-weight: 300 ; line-height: 1.8rem ; color: rgb(50 , 58 , 69) ; margin: 0px ; overflow-wrap: break-word ; background-color: rgb(255 , 255 , 255)&quot;&gt;&lt;font style=&quot;font-size: 18px&quot;&gt;&amp;nbsp; &amp;nbsp; Banking Committee Chair&amp;nbsp;&lt;/font&gt;&lt;/h2&gt;&lt;h3 class=&quot;ng-binding&quot; style=&quot;box-sizing: border-box ; font-family: &amp;#34;source sans pro&amp;#34; ; font-weight: 300 ; line-height: 1.5rem ; font-size: 1.3125rem ; margin: 0px ; overflow-wrap: break-word ; background-color: rgb(255 , 255 , 255)&quot;&gt;&lt;br&gt;&lt;/h3&gt;&lt;div&gt;&lt;font style=&quot;font-size: 18px&quot;&gt;&lt;div&gt;&amp;nbsp;&amp;nbsp;&lt;/div&gt;&lt;div&gt;&lt;br&gt;&lt;/div&gt;&lt;div&gt;&lt;br&gt;&lt;/div&gt;&lt;div&gt;&lt;br&gt;&lt;/div&gt;&lt;/font&gt;&lt;/div&gt;" style="text;spacingTop=-5;whiteSpace=wrap;html=1;align=left;fontSize=12;fontFamily=Helvetica;shadow=0;sketch=0;fillColor=#ffffff;strokeColor=#000000;glass=0;" vertex="1" parent="052PNmQrLWlGElGI5fra-2">
          <mxGeometry x="523" y="420" width="250" height="160" as="geometry" />
        </mxCell>
        <mxCell id="052PNmQrLWlGElGI5fra-5" value="&lt;div style=&quot;box-sizing: border-box ; color: rgb(255 , 255 , 255) ; font-family: &amp;quot;source sans pro&amp;quot; ; font-size: 16px ; background-color: rgb(7 , 82 , 165)&quot;&gt;Copyright Â©2020 American Chamber of Commerce in Egypt&lt;/div&gt;&lt;div class=&quot;small&quot; style=&quot;box-sizing: border-box ; font-size: 13.92px ; color: rgb(255 , 255 , 255) ; font-family: &amp;quot;source sans pro&amp;quot; ; background-color: rgb(7 , 82 , 165)&quot;&gt;&lt;a href=&quot;https://www.amcham.org.eg/privacy&quot; style=&quot;box-sizing: border-box ; background-color: transparent ; color: rgb(255 , 255 , 255)&quot;&gt;Privacy&lt;/a&gt;&amp;nbsp;&amp;nbsp;|&amp;nbsp;&amp;nbsp;&lt;a href=&quot;https://www.amcham.org.eg/copyright-disclaimer&quot; style=&quot;box-sizing: border-box ; background-color: transparent ; color: rgb(255 , 255 , 255)&quot;&gt;Copyright &amp;amp; Disclaimer&lt;/a&gt;&lt;/div&gt;" style="rounded=0;whiteSpace=wrap;html=1;fillColor=#0752a5;" vertex="1" parent="052PNmQrLWlGElGI5fra-2">
          <mxGeometry y="940" width="830" height="61" as="geometry" />
        </mxCell>
        <mxCell id="aEFtM2zXmzP00y7Bp3y5-1" value="" style="verticalLabelPosition=bottom;shadow=0;dashed=0;align=center;html=1;verticalAlign=top;strokeWidth=1;shape=mxgraph.mockup.markup.line;strokeColor=#999999;sketch=0;fillColor=#FFFFFF;gradientColor=none;" vertex="1" parent="052PNmQrLWlGElGI5fra-2">
          <mxGeometry x="548" y="450" width="200" height="20" as="geometry" />
        </mxCell>
        <mxCell id="Z0xuAUma6vTIT1JD6lfI-1" value="&gt;" style="strokeWidth=1;shadow=0;dashed=0;align=center;html=1;shape=mxgraph.mockup.navigation.anchor;fontSize=24;fontColor=#aaaaaa;fontStyle=1;sketch=0;fillColor=#f5f5f5;gradientColor=none;" vertex="1" parent="052PNmQrLWlGElGI5fra-2">
          <mxGeometry x="140" y="190" width="20" height="30" as="geometry" />
        </mxCell>
        <mxCell id="Z0xuAUma6vTIT1JD6lfI-2" value="&lt;font color=&quot;#d6373b&quot; style=&quot;font-weight: normal&quot;&gt;Committees&lt;/font&gt;" style="strokeWidth=1;shadow=0;dashed=0;align=center;html=1;shape=mxgraph.mockup.navigation.anchor;fontSize=17;fontColor=#666666;fontStyle=1;sketch=0;fillColor=#f5f5f5;gradientColor=none;" vertex="1" parent="052PNmQrLWlGElGI5fra-2">
          <mxGeometry x="180.00000000000009" y="190" width="60" height="30" as="geometry" />
        </mxCell>
        <mxCell id="Z0xuAUma6vTIT1JD6lfI-4" value="&lt;div style=&quot;font-size: 18px&quot;&gt;&lt;h2 class=&quot;text-secondary ng-binding&quot; style=&quot;text-align: center ; box-sizing: border-box ; font-family: &amp;#34;source sans pro&amp;#34; ; font-weight: 300 ; line-height: 1.8rem ; color: rgb(50 , 58 , 69) ; margin: 0px ; overflow-wrap: break-word ; background-color: rgb(255 , 255 , 255)&quot;&gt;&lt;font style=&quot;font-size: 18px&quot;&gt;&amp;nbsp; &amp;nbsp;Banking Committee Co-Chair&lt;/font&gt;&lt;/h2&gt;&lt;div&gt;&lt;font style=&quot;font-size: 18px&quot;&gt;&lt;br&gt;&lt;/font&gt;&lt;/div&gt;&lt;div&gt;&amp;nbsp;&lt;/div&gt;&lt;/div&gt;&lt;div style=&quot;font-size: 18px&quot;&gt;&lt;h3 class=&quot;ng-binding&quot; style=&quot;box-sizing: border-box ; font-family: &amp;#34;source sans pro&amp;#34; ; font-weight: 300 ; line-height: 1.5rem ; font-size: 1.3125rem ; margin: 0px ; overflow-wrap: break-word ; background-color: rgb(255 , 255 , 255)&quot;&gt;&lt;br&gt;&lt;/h3&gt;&lt;div&gt;&amp;nbsp;&amp;nbsp;&lt;/div&gt;&lt;/div&gt;&lt;div style=&quot;font-size: 18px&quot;&gt;&lt;span style=&quot;color: rgba(0 , 0 , 0 , 0) ; font-family: monospace ; font-size: 0px&quot;&gt;%3CmxGraphModel%3E%3Croot%3E%3CmxCell%20id%3D%220%22%2F%3E%3CmxCell%20id%3D%221%22%20parent%3D%220%22%2F%3E%3CmxCell%20id%3D%222%22%20value%3D%22%22%20style%3D%22verticalLabelPosition%3Dbottom%3Bshadow%3D0%3Bdashed%3D0%3Balign%3Dcenter%3Bhtml%3D1%3BverticalAlign%3Dtop%3BstrokeWidth%3D1%3Bshape%3Dmxgraph.mockup.markup.line%3BstrokeColor%3D%23999999%3Bsketch%3D0%3BfillColor%3D%23FFFFFF%3BgradientColor%3Dnone%3B%22%20vertex%3D%221%22%20parent%3D%221%22%3E%3CmxGeometry%20x%3D%22-1050%22%20y%3D%22-6450%22%20width%3D%22200%22%20height%3D%2220%22%20as%3D%22geometry%22%2F%3E%3C%2FmxCell%3E%3C%2Froot%3E%3C%2FmxGraphModel%3E&lt;/span&gt;&lt;br&gt;&lt;/div&gt;&lt;div style=&quot;font-size: 18px&quot;&gt;&lt;div&gt;&amp;nbsp;&amp;nbsp;&lt;/div&gt;&lt;/div&gt;" style="text;spacingTop=-5;whiteSpace=wrap;html=1;align=left;fontSize=12;fontFamily=Helvetica;shadow=0;glass=0;sketch=0;fillColor=#ffffff;strokeColor=#000000;" vertex="1" parent="052PNmQrLWlGElGI5fra-2">
          <mxGeometry x="520" y="610" width="253" height="300" as="geometry" />
        </mxCell>
        <mxCell id="Z0xuAUma6vTIT1JD6lfI-5" value="" style="verticalLabelPosition=bottom;shadow=0;dashed=0;align=center;html=1;verticalAlign=top;strokeWidth=1;shape=mxgraph.mockup.markup.line;strokeColor=#999999;sketch=0;fillColor=#FFFFFF;gradientColor=none;" vertex="1" parent="052PNmQrLWlGElGI5fra-2">
          <mxGeometry x="533" y="640" width="200" height="20" as="geometry" />
        </mxCell>
        <mxCell id="Z0xuAUma6vTIT1JD6lfI-7" value="" style="verticalLabelPosition=bottom;shadow=0;dashed=0;align=center;html=1;verticalAlign=top;strokeWidth=1;shape=mxgraph.mockup.markup.line;strokeColor=#999999;sketch=0;fillColor=#FFFFFF;gradientColor=none;" vertex="1" parent="052PNmQrLWlGElGI5fra-2">
          <mxGeometry x="551.5" y="760" width="200" height="20" as="geometry" />
        </mxCell>
        <mxCell id="Z0xuAUma6vTIT1JD6lfI-6" value="" style="verticalLabelPosition=bottom;shadow=0;dashed=0;align=center;html=1;verticalAlign=top;strokeWidth=1;shape=mxgraph.mockup.markup.line;strokeColor=#999999;sketch=0;fillColor=#FFFFFF;gradientColor=none;" vertex="1" parent="052PNmQrLWlGElGI5fra-2">
          <mxGeometry x="167.5" y="700" width="200" height="20" as="geometry" />
        </mxCell>
        <mxCell id="Z0xuAUma6vTIT1JD6lfI-29" value="&lt;div style=&quot;font-size: 18px&quot;&gt;&lt;h2 class=&quot;text-secondary ng-binding&quot; style=&quot;text-align: center ; box-sizing: border-box ; font-family: &amp;#34;source sans pro&amp;#34; ; font-weight: 300 ; line-height: 1.8rem ; color: rgb(50 , 58 , 69) ; margin: 0px ; overflow-wrap: break-word ; background-color: rgb(255 , 255 , 255)&quot;&gt;&lt;font style=&quot;font-size: 18px&quot;&gt;&amp;nbsp; &amp;nbsp; Core Member&lt;/font&gt;&lt;/h2&gt;&lt;div&gt;&lt;font style=&quot;font-size: 18px&quot;&gt;&lt;br&gt;&lt;/font&gt;&lt;/div&gt;&lt;div&gt;&lt;br&gt;&lt;/div&gt;&lt;/div&gt;&lt;div style=&quot;font-size: 18px&quot;&gt;&lt;div&gt;&amp;nbsp;&amp;nbsp;&lt;/div&gt;&lt;/div&gt;" style="text;spacingTop=-5;whiteSpace=wrap;html=1;align=left;fontSize=12;fontFamily=Helvetica;shadow=0;glass=0;sketch=0;fillColor=#ffffff;strokeColor=#000000;" vertex="1" parent="052PNmQrLWlGElGI5fra-2">
          <mxGeometry x="55" y="420" width="425" height="490" as="geometry" />
        </mxCell>
        <object label="" id="Z0xuAUma6vTIT1JD6lfI-34">
          <mxCell style="rounded=0;whiteSpace=wrap;html=1;shadow=0;glass=0;sketch=0;gradientColor=none;strokeColor=none;fillColor=#FFFFFF;labelBackgroundColor=#F5F5F5;labelBorderColor=#919191;" vertex="1" parent="052PNmQrLWlGElGI5fra-2">
            <mxGeometry x="538" y="470" width="220" height="100" as="geometry" />
          </mxCell>
        </object>
        <mxCell id="Z0xuAUma6vTIT1JD6lfI-37" value="&amp;nbsp; Firm" style="text;strokeColor=none;fillColor=none;html=1;fontSize=24;fontStyle=1;verticalAlign=middle;align=left;shadow=0;glass=0;sketch=0;" vertex="1" parent="052PNmQrLWlGElGI5fra-2">
          <mxGeometry x="620" y="520" width="100" height="40" as="geometry" />
        </mxCell>
        <mxCell id="Z0xuAUma6vTIT1JD6lfI-33" value="&amp;nbsp; Name" style="text;strokeColor=none;fillColor=none;html=1;fontSize=24;fontStyle=1;verticalAlign=middle;align=left;shadow=0;glass=0;sketch=0;" vertex="1" parent="052PNmQrLWlGElGI5fra-2">
          <mxGeometry x="620" y="480" width="100" height="40" as="geometry" />
        </mxCell>
        <mxCell id="Z0xuAUma6vTIT1JD6lfI-38" value="" style="shape=image;html=1;verticalAlign=top;verticalLabelPosition=bottom;labelBackgroundColor=#ffffff;imageAspect=0;aspect=fixed;image=data:image/png,iVBORw0KGgoAAAANSUhEUgAAADoAAABICAYAAACnUebiAAAAAXNSR0IArs4c6QAAAARnQU1BAACxjwv8YQUAAAAJcEhZcwAADsMAAA7DAcdvqGQAAAGPSURBVHhe7ZYxSgRREAW9lYGpIBgYioJnEYzEA4iBeADxLBoKim6mIGIomH3phYaheS7da49/7HkFFW3PvqlA2Y02ExhaDYZWg6HVYGg1GFoNhv6Gl+OT9rC90+43t1zKrTwzJumhH9c3MMajPDsW6aGPu3swwqM8OxYrQ98vr+ALTUl5Rw8rQ9EXT1EPDBXQl05RDwwVZvPPqBIMrYY7FP199DQKQy1orKdRGGpBYz2NwlALGhv6eXu3FH2mZt2IUVJChz/DfvrZmHWjRmGoBY2pWRGeGzUKQy1oTM2K8NyoURhqQWNqVoTnRo3CUAsaU7MiPDdqFIZa0JiaFeG5UaMw1ILG1KwIz40ahaEWNKZmRXhu1CgMtaAxNSvCc6NGYagFjalZEZ4bNQpDLWhMzYrw3KhRGGpBY0O/Foul6DM160aMkhb610ZhqOX54AgO9lDeJYo79PX0DI72UN4lijtUQKM9XIdQqPB2ftGe9g/hC4ypbMr2uoRD/ysMrQZDq8HQajC0GgytxkxCW/sGpxrY3gHObOgAAAAASUVORK5CYII=;base64,iVBORw0KGgoAAAANSUhEUgAAADoAAABICAYAAACnUebiAAAAAXNSR0IArs4c6QAAAARnQU1BAACxjwv8YQUAAAAJcEhZcwAADsMAAA7DAcdvqGQAAAGPSURBVHhe7ZYxSgRREAW9lYGpIBgYioJnEYzEA4iBeADxLBoKim6mIGIomH3phYaheS7da49/7HkFFW3PvqlA2Y02ExhaDYZWg6HVYGg1GFoNhv6Gl+OT9rC90+43t1zKrTwzJumhH9c3MMajPDsW6aGPu3swwqM8OxYrQ98vr+ALTUl5Rw8rQ9EXT1EPDBXQl05RDwwVZvPPqBIMrYY7FP199DQKQy1orKdRGGpBYz2NwlALGhv6eXu3FH2mZt2IUVJChz/DfvrZmHWjRmGoBY2pWRGeGzUKQy1oTM2K8NyoURhqQWNqVoTnRo3CUAsaU7MiPDdqFIZa0JiaFeG5UaMw1ILG1KwIz40ahaEWNKZmRXhu1CgMtaAxNSvCc6NGYagFjalZEZ4bNQpDLWhMzYrw3KhRGGpBY0O/Foul6DM160aMkhb610ZhqOX54AgO9lDeJYo79PX0DI72UN4lijtUQKM9XIdQqPB2ftGe9g/hC4ypbMr2uoRD/ysMrQZDq8HQajC0GgytxkxCW/sGpxrY3gHObOgAAAAASUVORK5CYII=;shadow=0;glass=0;sketch=0;strokeColor=#000000;fillColor=#ffffff;gradientColor=none;imageBackground=#ffffff;" vertex="1" parent="052PNmQrLWlGElGI5fra-2">
          <mxGeometry x="725.74" y="470" width="32.26" height="40" as="geometry" />
        </mxCell>
        <mxCell id="Z0xuAUma6vTIT1JD6lfI-30" value="" style="verticalLabelPosition=bottom;shadow=0;dashed=0;align=center;html=1;verticalAlign=top;strokeWidth=1;shape=mxgraph.mockup.containers.userMale;strokeColor2=#008cff;glass=0;sketch=0;gradientColor=none;strokeColor=none;fillColor=none;" vertex="1" parent="052PNmQrLWlGElGI5fra-2">
          <mxGeometry x="556.5" y="480" width="50" height="60" as="geometry" />
        </mxCell>
        <object label="" id="Z0xuAUma6vTIT1JD6lfI-44">
          <mxCell style="rounded=0;whiteSpace=wrap;html=1;shadow=0;glass=0;sketch=0;gradientColor=none;strokeColor=none;fillColor=#FFFFFF;labelBackgroundColor=#F5F5F5;labelBorderColor=#919191;" vertex="1" parent="052PNmQrLWlGElGI5fra-2">
            <mxGeometry x="55" y="471" width="425" height="89" as="geometry" />
          </mxCell>
        </object>
        <mxCell id="Z0xuAUma6vTIT1JD6lfI-45" value="&amp;nbsp; Firm" style="text;strokeColor=none;fillColor=none;html=1;fontSize=24;fontStyle=1;verticalAlign=middle;align=left;shadow=0;glass=0;sketch=0;" vertex="1" parent="052PNmQrLWlGElGI5fra-2">
          <mxGeometry x="160" y="520" width="100" height="40" as="geometry" />
        </mxCell>
        <mxCell id="Z0xuAUma6vTIT1JD6lfI-46" value="&amp;nbsp; Name" style="text;strokeColor=none;fillColor=none;html=1;fontSize=24;fontStyle=1;verticalAlign=middle;align=left;shadow=0;glass=0;sketch=0;" vertex="1" parent="052PNmQrLWlGElGI5fra-2">
          <mxGeometry x="160" y="480" width="100" height="40" as="geometry" />
        </mxCell>
        <mxCell id="Z0xuAUma6vTIT1JD6lfI-47" value="" style="shape=image;html=1;verticalAlign=top;verticalLabelPosition=bottom;labelBackgroundColor=#ffffff;imageAspect=0;aspect=fixed;image=data:image/png,iVBORw0KGgoAAAANSUhEUgAAADoAAABICAYAAACnUebiAAAAAXNSR0IArs4c6QAAAARnQU1BAACxjwv8YQUAAAAJcEhZcwAADsMAAA7DAcdvqGQAAAGPSURBVHhe7ZYxSgRREAW9lYGpIBgYioJnEYzEA4iBeADxLBoKim6mIGIomH3phYaheS7da49/7HkFFW3PvqlA2Y02ExhaDYZWg6HVYGg1GFoNhv6Gl+OT9rC90+43t1zKrTwzJumhH9c3MMajPDsW6aGPu3swwqM8OxYrQ98vr+ALTUl5Rw8rQ9EXT1EPDBXQl05RDwwVZvPPqBIMrYY7FP199DQKQy1orKdRGGpBYz2NwlALGhv6eXu3FH2mZt2IUVJChz/DfvrZmHWjRmGoBY2pWRGeGzUKQy1oTM2K8NyoURhqQWNqVoTnRo3CUAsaU7MiPDdqFIZa0JiaFeG5UaMw1ILG1KwIz40ahaEWNKZmRXhu1CgMtaAxNSvCc6NGYagFjalZEZ4bNQpDLWhMzYrw3KhRGGpBY0O/Foul6DM160aMkhb610ZhqOX54AgO9lDeJYo79PX0DI72UN4lijtUQKM9XIdQqPB2ftGe9g/hC4ypbMr2uoRD/ysMrQZDq8HQajC0GgytxkxCW/sGpxrY3gHObOgAAAAASUVORK5CYII=;base64,iVBORw0KGgoAAAANSUhEUgAAADoAAABICAYAAACnUebiAAAAAXNSR0IArs4c6QAAAARnQU1BAACxjwv8YQUAAAAJcEhZcwAADsMAAA7DAcdvqGQAAAGPSURBVHhe7ZYxSgRREAW9lYGpIBgYioJnEYzEA4iBeADxLBoKim6mIGIomH3phYaheS7da49/7HkFFW3PvqlA2Y02ExhaDYZWg6HVYGg1GFoNhv6Gl+OT9rC90+43t1zKrTwzJumhH9c3MMajPDsW6aGPu3swwqM8OxYrQ98vr+ALTUl5Rw8rQ9EXT1EPDBXQl05RDwwVZvPPqBIMrYY7FP199DQKQy1orKdRGGpBYz2NwlALGhv6eXu3FH2mZt2IUVJChz/DfvrZmHWjRmGoBY2pWRGeGzUKQy1oTM2K8NyoURhqQWNqVoTnRo3CUAsaU7MiPDdqFIZa0JiaFeG5UaMw1ILG1KwIz40ahaEWNKZmRXhu1CgMtaAxNSvCc6NGYagFjalZEZ4bNQpDLWhMzYrw3KhRGGpBY0O/Foul6DM160aMkhb610ZhqOX54AgO9lDeJYo79PX0DI72UN4lijtUQKM9XIdQqPB2ftGe9g/hC4ypbMr2uoRD/ysMrQZDq8HQajC0GgytxkxCW/sGpxrY3gHObOgAAAAASUVORK5CYII=;shadow=0;glass=0;sketch=0;strokeColor=#000000;fillColor=#ffffff;gradientColor=none;imageBackground=#ffffff;" vertex="1" parent="052PNmQrLWlGElGI5fra-2">
          <mxGeometry x="440" y="470" width="32.26" height="40" as="geometry" />
        </mxCell>
        <mxCell id="Z0xuAUma6vTIT1JD6lfI-48" value="" style="verticalLabelPosition=bottom;shadow=0;dashed=0;align=center;html=1;verticalAlign=top;strokeWidth=1;shape=mxgraph.mockup.containers.userMale;strokeColor2=#008cff;glass=0;sketch=0;gradientColor=none;strokeColor=none;fillColor=none;" vertex="1" parent="052PNmQrLWlGElGI5fra-2">
          <mxGeometry x="73.5" y="490" width="50" height="60" as="geometry" />
        </mxCell>
        <object label="" id="Z0xuAUma6vTIT1JD6lfI-49">
          <mxCell style="rounded=0;whiteSpace=wrap;html=1;shadow=0;glass=0;sketch=0;gradientColor=none;strokeColor=none;fillColor=#FFFFFF;labelBackgroundColor=#F5F5F5;labelBorderColor=#919191;" vertex="1" parent="052PNmQrLWlGElGI5fra-2">
            <mxGeometry x="536.5" y="790" width="220" height="100" as="geometry" />
          </mxCell>
        </object>
        <mxCell id="Z0xuAUma6vTIT1JD6lfI-50" value="&amp;nbsp; Firm" style="text;strokeColor=none;fillColor=none;html=1;fontSize=24;fontStyle=1;verticalAlign=middle;align=left;shadow=0;glass=0;sketch=0;" vertex="1" parent="052PNmQrLWlGElGI5fra-2">
          <mxGeometry x="618.5" y="840" width="100" height="40" as="geometry" />
        </mxCell>
        <mxCell id="Z0xuAUma6vTIT1JD6lfI-51" value="&amp;nbsp; Name" style="text;strokeColor=none;fillColor=none;html=1;fontSize=24;fontStyle=1;verticalAlign=middle;align=left;shadow=0;glass=0;sketch=0;" vertex="1" parent="052PNmQrLWlGElGI5fra-2">
          <mxGeometry x="618.5" y="800" width="100" height="40" as="geometry" />
        </mxCell>
        <mxCell id="Z0xuAUma6vTIT1JD6lfI-52" value="" style="shape=image;html=1;verticalAlign=top;verticalLabelPosition=bottom;labelBackgroundColor=#ffffff;imageAspect=0;aspect=fixed;image=data:image/png,iVBORw0KGgoAAAANSUhEUgAAADoAAABICAYAAACnUebiAAAAAXNSR0IArs4c6QAAAARnQU1BAACxjwv8YQUAAAAJcEhZcwAADsMAAA7DAcdvqGQAAAGPSURBVHhe7ZYxSgRREAW9lYGpIBgYioJnEYzEA4iBeADxLBoKim6mIGIomH3phYaheS7da49/7HkFFW3PvqlA2Y02ExhaDYZWg6HVYGg1GFoNhv6Gl+OT9rC90+43t1zKrTwzJumhH9c3MMajPDsW6aGPu3swwqM8OxYrQ98vr+ALTUl5Rw8rQ9EXT1EPDBXQl05RDwwVZvPPqBIMrYY7FP199DQKQy1orKdRGGpBYz2NwlALGhv6eXu3FH2mZt2IUVJChz/DfvrZmHWjRmGoBY2pWRGeGzUKQy1oTM2K8NyoURhqQWNqVoTnRo3CUAsaU7MiPDdqFIZa0JiaFeG5UaMw1ILG1KwIz40ahaEWNKZmRXhu1CgMtaAxNSvCc6NGYagFjalZEZ4bNQpDLWhMzYrw3KhRGGpBY0O/Foul6DM160aMkhb610ZhqOX54AgO9lDeJYo79PX0DI72UN4lijtUQKM9XIdQqPB2ftGe9g/hC4ypbMr2uoRD/ysMrQZDq8HQajC0GgytxkxCW/sGpxrY3gHObOgAAAAASUVORK5CYII=;base64,iVBORw0KGgoAAAANSUhEUgAAADoAAABICAYAAACnUebiAAAAAXNSR0IArs4c6QAAAARnQU1BAACxjwv8YQUAAAAJcEhZcwAADsMAAA7DAcdvqGQAAAGPSURBVHhe7ZYxSgRREAW9lYGpIBgYioJnEYzEA4iBeADxLBoKim6mIGIomH3phYaheS7da49/7HkFFW3PvqlA2Y02ExhaDYZWg6HVYGg1GFoNhv6Gl+OT9rC90+43t1zKrTwzJumhH9c3MMajPDsW6aGPu3swwqM8OxYrQ98vr+ALTUl5Rw8rQ9EXT1EPDBXQl05RDwwVZvPPqBIMrYY7FP199DQKQy1orKdRGGpBYz2NwlALGhv6eXu3FH2mZt2IUVJChz/DfvrZmHWjRmGoBY2pWRGeGzUKQy1oTM2K8NyoURhqQWNqVoTnRo3CUAsaU7MiPDdqFIZa0JiaFeG5UaMw1ILG1KwIz40ahaEWNKZmRXhu1CgMtaAxNSvCc6NGYagFjalZEZ4bNQpDLWhMzYrw3KhRGGpBY0O/Foul6DM160aMkhb610ZhqOX54AgO9lDeJYo79PX0DI72UN4lijtUQKM9XIdQqPB2ftGe9g/hC4ypbMr2uoRD/ysMrQZDq8HQajC0GgytxkxCW/sGpxrY3gHObOgAAAAASUVORK5CYII=;shadow=0;glass=0;sketch=0;strokeColor=#000000;fillColor=#ffffff;gradientColor=none;imageBackground=#ffffff;" vertex="1" parent="052PNmQrLWlGElGI5fra-2">
          <mxGeometry x="724.24" y="790" width="32.26" height="40" as="geometry" />
        </mxCell>
        <mxCell id="Z0xuAUma6vTIT1JD6lfI-53" value="" style="verticalLabelPosition=bottom;shadow=0;dashed=0;align=center;html=1;verticalAlign=top;strokeWidth=1;shape=mxgraph.mockup.containers.userMale;strokeColor2=#008cff;glass=0;sketch=0;gradientColor=none;strokeColor=none;fillColor=none;" vertex="1" parent="052PNmQrLWlGElGI5fra-2">
          <mxGeometry x="555" y="816" width="50" height="50" as="geometry" />
        </mxCell>
        <object label="" id="Z0xuAUma6vTIT1JD6lfI-59">
          <mxCell style="rounded=0;whiteSpace=wrap;html=1;shadow=0;glass=0;sketch=0;gradientColor=none;strokeColor=none;fillColor=#FFFFFF;labelBackgroundColor=#F5F5F5;labelBorderColor=#919191;" vertex="1" parent="052PNmQrLWlGElGI5fra-2">
            <mxGeometry x="533" y="660" width="220" height="100" as="geometry" />
          </mxCell>
        </object>
        <mxCell id="Z0xuAUma6vTIT1JD6lfI-60" value="&amp;nbsp; Firm" style="text;strokeColor=none;fillColor=none;html=1;fontSize=24;fontStyle=1;verticalAlign=middle;align=left;shadow=0;glass=0;sketch=0;" vertex="1" parent="052PNmQrLWlGElGI5fra-2">
          <mxGeometry x="615" y="710" width="100" height="40" as="geometry" />
        </mxCell>
        <mxCell id="Z0xuAUma6vTIT1JD6lfI-61" value="&amp;nbsp; Name" style="text;strokeColor=none;fillColor=none;html=1;fontSize=24;fontStyle=1;verticalAlign=middle;align=left;shadow=0;glass=0;sketch=0;" vertex="1" parent="052PNmQrLWlGElGI5fra-2">
          <mxGeometry x="615" y="670" width="100" height="40" as="geometry" />
        </mxCell>
        <mxCell id="Z0xuAUma6vTIT1JD6lfI-62" value="" style="shape=image;html=1;verticalAlign=top;verticalLabelPosition=bottom;labelBackgroundColor=#ffffff;imageAspect=0;aspect=fixed;image=data:image/png,iVBORw0KGgoAAAANSUhEUgAAADoAAABICAYAAACnUebiAAAAAXNSR0IArs4c6QAAAARnQU1BAACxjwv8YQUAAAAJcEhZcwAADsMAAA7DAcdvqGQAAAGPSURBVHhe7ZYxSgRREAW9lYGpIBgYioJnEYzEA4iBeADxLBoKim6mIGIomH3phYaheS7da49/7HkFFW3PvqlA2Y02ExhaDYZWg6HVYGg1GFoNhv6Gl+OT9rC90+43t1zKrTwzJumhH9c3MMajPDsW6aGPu3swwqM8OxYrQ98vr+ALTUl5Rw8rQ9EXT1EPDBXQl05RDwwVZvPPqBIMrYY7FP199DQKQy1orKdRGGpBYz2NwlALGhv6eXu3FH2mZt2IUVJChz/DfvrZmHWjRmGoBY2pWRGeGzUKQy1oTM2K8NyoURhqQWNqVoTnRo3CUAsaU7MiPDdqFIZa0JiaFeG5UaMw1ILG1KwIz40ahaEWNKZmRXhu1CgMtaAxNSvCc6NGYagFjalZEZ4bNQpDLWhMzYrw3KhRGGpBY0O/Foul6DM160aMkhb610ZhqOX54AgO9lDeJYo79PX0DI72UN4lijtUQKM9XIdQqPB2ftGe9g/hC4ypbMr2uoRD/ysMrQZDq8HQajC0GgytxkxCW/sGpxrY3gHObOgAAAAASUVORK5CYII=;base64,iVBORw0KGgoAAAANSUhEUgAAADoAAABICAYAAACnUebiAAAAAXNSR0IArs4c6QAAAARnQU1BAACxjwv8YQUAAAAJcEhZcwAADsMAAA7DAcdvqGQAAAGPSURBVHhe7ZYxSgRREAW9lYGpIBgYioJnEYzEA4iBeADxLBoKim6mIGIomH3phYaheS7da49/7HkFFW3PvqlA2Y02ExhaDYZWg6HVYGg1GFoNhv6Gl+OT9rC90+43t1zKrTwzJumhH9c3MMajPDsW6aGPu3swwqM8OxYrQ98vr+ALTUl5Rw8rQ9EXT1EPDBXQl05RDwwVZvPPqBIMrYY7FP199DQKQy1orKdRGGpBYz2NwlALGhv6eXu3FH2mZt2IUVJChz/DfvrZmHWjRmGoBY2pWRGeGzUKQy1oTM2K8NyoURhqQWNqVoTnRo3CUAsaU7MiPDdqFIZa0JiaFeG5UaMw1ILG1KwIz40ahaEWNKZmRXhu1CgMtaAxNSvCc6NGYagFjalZEZ4bNQpDLWhMzYrw3KhRGGpBY0O/Foul6DM160aMkhb610ZhqOX54AgO9lDeJYo79PX0DI72UN4lijtUQKM9XIdQqPB2ftGe9g/hC4ypbMr2uoRD/ysMrQZDq8HQajC0GgytxkxCW/sGpxrY3gHObOgAAAAASUVORK5CYII=;shadow=0;glass=0;sketch=0;strokeColor=#000000;fillColor=#ffffff;gradientColor=none;imageBackground=#ffffff;" vertex="1" parent="052PNmQrLWlGElGI5fra-2">
          <mxGeometry x="720.74" y="660" width="32.26" height="40" as="geometry" />
        </mxCell>
        <mxCell id="Z0xuAUma6vTIT1JD6lfI-63" value="" style="verticalLabelPosition=bottom;shadow=0;dashed=0;align=center;html=1;verticalAlign=top;strokeWidth=1;shape=mxgraph.mockup.containers.userMale;strokeColor2=#008cff;glass=0;sketch=0;gradientColor=none;strokeColor=none;fillColor=none;" vertex="1" parent="052PNmQrLWlGElGI5fra-2">
          <mxGeometry x="551.5" y="680" width="50" height="60" as="geometry" />
        </mxCell>
        <mxCell id="Z0xuAUma6vTIT1JD6lfI-64" value="" style="verticalLabelPosition=bottom;shadow=0;dashed=0;align=center;html=1;verticalAlign=top;strokeWidth=1;shape=mxgraph.mockup.markup.line;strokeColor=#999999;sketch=0;fillColor=#FFFFFF;gradientColor=none;" vertex="1" parent="052PNmQrLWlGElGI5fra-2">
          <mxGeometry x="70" y="450" width="200" height="20" as="geometry" />
        </mxCell>
        <mxCell id="Z0xuAUma6vTIT1JD6lfI-65" value="" style="verticalLabelPosition=bottom;shadow=0;dashed=0;align=center;html=1;verticalAlign=top;strokeWidth=1;shape=mxgraph.mockup.markup.line;strokeColor=#999999;sketch=0;fillColor=#FFFFFF;gradientColor=none;" vertex="1" parent="052PNmQrLWlGElGI5fra-2">
          <mxGeometry x="80" y="580" width="370" height="20" as="geometry" />
        </mxCell>
        <object label="" id="Z0xuAUma6vTIT1JD6lfI-67">
          <mxCell style="rounded=0;whiteSpace=wrap;html=1;shadow=0;glass=0;sketch=0;gradientColor=none;strokeColor=none;fillColor=#FFFFFF;labelBackgroundColor=#F5F5F5;labelBorderColor=#919191;" vertex="1" parent="052PNmQrLWlGElGI5fra-2">
            <mxGeometry x="55" y="591" width="425" height="89" as="geometry" />
          </mxCell>
        </object>
        <mxCell id="Z0xuAUma6vTIT1JD6lfI-68" value="&amp;nbsp; Firm" style="text;strokeColor=none;fillColor=none;html=1;fontSize=24;fontStyle=1;verticalAlign=middle;align=left;shadow=0;glass=0;sketch=0;" vertex="1" parent="052PNmQrLWlGElGI5fra-2">
          <mxGeometry x="160" y="640" width="100" height="40" as="geometry" />
        </mxCell>
        <mxCell id="Z0xuAUma6vTIT1JD6lfI-69" value="&amp;nbsp; Name" style="text;strokeColor=none;fillColor=none;html=1;fontSize=24;fontStyle=1;verticalAlign=middle;align=left;shadow=0;glass=0;sketch=0;" vertex="1" parent="052PNmQrLWlGElGI5fra-2">
          <mxGeometry x="160" y="600" width="100" height="40" as="geometry" />
        </mxCell>
        <mxCell id="Z0xuAUma6vTIT1JD6lfI-70" value="" style="shape=image;html=1;verticalAlign=top;verticalLabelPosition=bottom;labelBackgroundColor=#ffffff;imageAspect=0;aspect=fixed;image=data:image/png,iVBORw0KGgoAAAANSUhEUgAAADoAAABICAYAAACnUebiAAAAAXNSR0IArs4c6QAAAARnQU1BAACxjwv8YQUAAAAJcEhZcwAADsMAAA7DAcdvqGQAAAGPSURBVHhe7ZYxSgRREAW9lYGpIBgYioJnEYzEA4iBeADxLBoKim6mIGIomH3phYaheS7da49/7HkFFW3PvqlA2Y02ExhaDYZWg6HVYGg1GFoNhv6Gl+OT9rC90+43t1zKrTwzJumhH9c3MMajPDsW6aGPu3swwqM8OxYrQ98vr+ALTUl5Rw8rQ9EXT1EPDBXQl05RDwwVZvPPqBIMrYY7FP199DQKQy1orKdRGGpBYz2NwlALGhv6eXu3FH2mZt2IUVJChz/DfvrZmHWjRmGoBY2pWRGeGzUKQy1oTM2K8NyoURhqQWNqVoTnRo3CUAsaU7MiPDdqFIZa0JiaFeG5UaMw1ILG1KwIz40ahaEWNKZmRXhu1CgMtaAxNSvCc6NGYagFjalZEZ4bNQpDLWhMzYrw3KhRGGpBY0O/Foul6DM160aMkhb610ZhqOX54AgO9lDeJYo79PX0DI72UN4lijtUQKM9XIdQqPB2ftGe9g/hC4ypbMr2uoRD/ysMrQZDq8HQajC0GgytxkxCW/sGpxrY3gHObOgAAAAASUVORK5CYII=;base64,iVBORw0KGgoAAAANSUhEUgAAADoAAABICAYAAACnUebiAAAAAXNSR0IArs4c6QAAAARnQU1BAACxjwv8YQUAAAAJcEhZcwAADsMAAA7DAcdvqGQAAAGPSURBVHhe7ZYxSgRREAW9lYGpIBgYioJnEYzEA4iBeADxLBoKim6mIGIomH3phYaheS7da49/7HkFFW3PvqlA2Y02ExhaDYZWg6HVYGg1GFoNhv6Gl+OT9rC90+43t1zKrTwzJumhH9c3MMajPDsW6aGPu3swwqM8OxYrQ98vr+ALTUl5Rw8rQ9EXT1EPDBXQl05RDwwVZvPPqBIMrYY7FP199DQKQy1orKdRGGpBYz2NwlALGhv6eXu3FH2mZt2IUVJChz/DfvrZmHWjRmGoBY2pWRGeGzUKQy1oTM2K8NyoURhqQWNqVoTnRo3CUAsaU7MiPDdqFIZa0JiaFeG5UaMw1ILG1KwIz40ahaEWNKZmRXhu1CgMtaAxNSvCc6NGYagFjalZEZ4bNQpDLWhMzYrw3KhRGGpBY0O/Foul6DM160aMkhb610ZhqOX54AgO9lDeJYo79PX0DI72UN4lijtUQKM9XIdQqPB2ftGe9g/hC4ypbMr2uoRD/ysMrQZDq8HQajC0GgytxkxCW/sGpxrY3gHObOgAAAAASUVORK5CYII=;shadow=0;glass=0;sketch=0;strokeColor=#000000;fillColor=#ffffff;gradientColor=none;imageBackground=#ffffff;" vertex="1" parent="052PNmQrLWlGElGI5fra-2">
          <mxGeometry x="440" y="590" width="32.26" height="40" as="geometry" />
        </mxCell>
        <mxCell id="Z0xuAUma6vTIT1JD6lfI-71" value="" style="verticalLabelPosition=bottom;shadow=0;dashed=0;align=center;html=1;verticalAlign=top;strokeWidth=1;shape=mxgraph.mockup.containers.userMale;strokeColor2=#008cff;glass=0;sketch=0;gradientColor=none;strokeColor=none;fillColor=none;" vertex="1" parent="052PNmQrLWlGElGI5fra-2">
          <mxGeometry x="73.5" y="610" width="50" height="60" as="geometry" />
        </mxCell>
        <mxCell id="Z0xuAUma6vTIT1JD6lfI-72" value="" style="verticalLabelPosition=bottom;shadow=0;dashed=0;align=center;html=1;verticalAlign=top;strokeWidth=1;shape=mxgraph.mockup.markup.line;strokeColor=#999999;sketch=0;fillColor=#FFFFFF;gradientColor=none;" vertex="1" parent="052PNmQrLWlGElGI5fra-2">
          <mxGeometry x="80" y="700" width="370" height="20" as="geometry" />
        </mxCell>
        <object label="" id="Z0xuAUma6vTIT1JD6lfI-73">
          <mxCell style="rounded=0;whiteSpace=wrap;html=1;shadow=0;glass=0;sketch=0;gradientColor=none;strokeColor=none;fillColor=#FFFFFF;labelBackgroundColor=#F5F5F5;labelBorderColor=#919191;" vertex="1" parent="052PNmQrLWlGElGI5fra-2">
            <mxGeometry x="55" y="711" width="425" height="89" as="geometry" />
          </mxCell>
        </object>
        <mxCell id="Z0xuAUma6vTIT1JD6lfI-74" value="&amp;nbsp; Firm" style="text;strokeColor=none;fillColor=none;html=1;fontSize=24;fontStyle=1;verticalAlign=middle;align=left;shadow=0;glass=0;sketch=0;" vertex="1" parent="052PNmQrLWlGElGI5fra-2">
          <mxGeometry x="157.5" y="760" width="100" height="40" as="geometry" />
        </mxCell>
        <mxCell id="Z0xuAUma6vTIT1JD6lfI-75" value="&amp;nbsp; Name" style="text;strokeColor=none;fillColor=none;html=1;fontSize=24;fontStyle=1;verticalAlign=middle;align=left;shadow=0;glass=0;sketch=0;" vertex="1" parent="052PNmQrLWlGElGI5fra-2">
          <mxGeometry x="157.5" y="720" width="100" height="40" as="geometry" />
        </mxCell>
        <mxCell id="Z0xuAUma6vTIT1JD6lfI-76" value="" style="shape=image;html=1;verticalAlign=top;verticalLabelPosition=bottom;labelBackgroundColor=#ffffff;imageAspect=0;aspect=fixed;image=data:image/png,iVBORw0KGgoAAAANSUhEUgAAADoAAABICAYAAACnUebiAAAAAXNSR0IArs4c6QAAAARnQU1BAACxjwv8YQUAAAAJcEhZcwAADsMAAA7DAcdvqGQAAAGPSURBVHhe7ZYxSgRREAW9lYGpIBgYioJnEYzEA4iBeADxLBoKim6mIGIomH3phYaheS7da49/7HkFFW3PvqlA2Y02ExhaDYZWg6HVYGg1GFoNhv6Gl+OT9rC90+43t1zKrTwzJumhH9c3MMajPDsW6aGPu3swwqM8OxYrQ98vr+ALTUl5Rw8rQ9EXT1EPDBXQl05RDwwVZvPPqBIMrYY7FP199DQKQy1orKdRGGpBYz2NwlALGhv6eXu3FH2mZt2IUVJChz/DfvrZmHWjRmGoBY2pWRGeGzUKQy1oTM2K8NyoURhqQWNqVoTnRo3CUAsaU7MiPDdqFIZa0JiaFeG5UaMw1ILG1KwIz40ahaEWNKZmRXhu1CgMtaAxNSvCc6NGYagFjalZEZ4bNQpDLWhMzYrw3KhRGGpBY0O/Foul6DM160aMkhb610ZhqOX54AgO9lDeJYo79PX0DI72UN4lijtUQKM9XIdQqPB2ftGe9g/hC4ypbMr2uoRD/ysMrQZDq8HQajC0GgytxkxCW/sGpxrY3gHObOgAAAAASUVORK5CYII=;base64,iVBORw0KGgoAAAANSUhEUgAAADoAAABICAYAAACnUebiAAAAAXNSR0IArs4c6QAAAARnQU1BAACxjwv8YQUAAAAJcEhZcwAADsMAAA7DAcdvqGQAAAGPSURBVHhe7ZYxSgRREAW9lYGpIBgYioJnEYzEA4iBeADxLBoKim6mIGIomH3phYaheS7da49/7HkFFW3PvqlA2Y02ExhaDYZWg6HVYGg1GFoNhv6Gl+OT9rC90+43t1zKrTwzJumhH9c3MMajPDsW6aGPu3swwqM8OxYrQ98vr+ALTUl5Rw8rQ9EXT1EPDBXQl05RDwwVZvPPqBIMrYY7FP199DQKQy1orKdRGGpBYz2NwlALGhv6eXu3FH2mZt2IUVJChz/DfvrZmHWjRmGoBY2pWRGeGzUKQy1oTM2K8NyoURhqQWNqVoTnRo3CUAsaU7MiPDdqFIZa0JiaFeG5UaMw1ILG1KwIz40ahaEWNKZmRXhu1CgMtaAxNSvCc6NGYagFjalZEZ4bNQpDLWhMzYrw3KhRGGpBY0O/Foul6DM160aMkhb610ZhqOX54AgO9lDeJYo79PX0DI72UN4lijtUQKM9XIdQqPB2ftGe9g/hC4ypbMr2uoRD/ysMrQZDq8HQajC0GgytxkxCW/sGpxrY3gHObOgAAAAASUVORK5CYII=;shadow=0;glass=0;sketch=0;strokeColor=#000000;fillColor=#ffffff;gradientColor=none;imageBackground=#ffffff;" vertex="1" parent="052PNmQrLWlGElGI5fra-2">
          <mxGeometry x="437.5" y="710" width="32.26" height="40" as="geometry" />
        </mxCell>
        <mxCell id="Z0xuAUma6vTIT1JD6lfI-77" value="" style="verticalLabelPosition=bottom;shadow=0;dashed=0;align=center;html=1;verticalAlign=top;strokeWidth=1;shape=mxgraph.mockup.containers.userMale;strokeColor2=#008cff;glass=0;sketch=0;gradientColor=none;strokeColor=none;fillColor=none;" vertex="1" parent="052PNmQrLWlGElGI5fra-2">
          <mxGeometry x="71" y="730" width="50" height="60" as="geometry" />
        </mxCell>
      </root>
    </mxGraphModel>
  </diagram>
</mxfile>
